# xmcd CD database file
#
# Track frame offsets:
#	150
#	15852
#	31075
#	43555
#	54372
#	64882
#	75692
#	88815
#	102887
#	114037
#	127197
#	146920
#	162615
#	174945
#	188635
#	201950
#
# Disc length: 2872 seconds
#
# Revision: 3
# Processed by: cddbd v1.5.1PL0 Copyright (c) Steve Scherf et al.
# Submitted via: CDex 1.50
#
DISCID=cf0b3610
DTITLE=Manuela - Szene Star
DYEAR=1997
DGENRE=Schlager
TTITLE0=Für immer
TTITLE1=Olé Mallorca
TTITLE2=Schuld war Nur der Bossa Nova
TTITLE3=Ich Geh Noch Zur Schule
TTITLE4=Schwimmen Lernt Man Im See
TTITLE5=Schneemann
TTITLE6=Küsse Unterm regenbogen
TTITLE7=Love And Kisses
TTITLE8=Lord Leicester Aus Manchaster
TTITLE9=Monsieur Dupont
TTITLE10=Wenn es Nacht Wird In Harlem
TTITLE11=Guantanamea
TTITLE12=Helicopter US-Navy 66
TTITLE13=Alles Und Noch Viel Mehr
TTITLE14=Der Schwarze Mann Auf dem Dach
TTITLE15=Prost, Onkel Albert!
EXTD=YEAR: 1997
EXTT0=
EXTT1=
EXTT2=
EXTT3=
EXTT4=
EXTT5=
EXTT6=
EXTT7=
EXTT8=
EXTT9=
EXTT10=
EXTT11=
EXTT12=
EXTT13=
EXTT14=
EXTT15=
PLAYORDER=
